<svg width="25" height="25" viewBox="0 0 25 25" fill="none" xmlns="http://www.w3.org/2000/svg">
<path fill-rule="evenodd" clip-rule="evenodd" d="M12.502 0C15.8437 0 18.9842 1.29923 21.3431 3.65926C26.219 8.53516 26.219 16.4678 21.3431 21.3437C18.9528 23.7352 15.7344 25.0007 12.4741 25.0007C10.6968 25.0007 8.90788 24.625 7.23411 23.8503C6.74094 23.6526 6.27917 23.4665 5.94767 23.4665C5.56616 23.4688 5.05321 23.6456 4.55771 23.8166C3.54112 24.1655 2.27562 24.6005 1.33929 23.6677C0.406446 22.7337 0.83681 21.4717 1.18343 20.4562C1.35441 19.9561 1.53005 19.4397 1.53005 19.0488C1.53005 18.7278 1.37535 18.3184 1.13806 17.7287C-1.04051 13.0237 -0.0332227 7.35341 3.66209 3.66042C6.02095 1.3004 9.16028 0 12.502 0ZM12.5032 1.74472C9.6267 1.74472 6.92472 2.86367 4.89503 4.89452C1.71499 8.07223 0.849605 12.9516 2.73972 17.0378C3.01189 17.7112 3.27476 18.3672 3.27476 19.0488C3.27476 19.7293 3.04097 20.4144 2.83509 21.0192C2.66528 21.517 2.40822 22.2684 2.57339 22.4336C2.73506 22.6011 3.49111 22.3371 3.9901 22.1661C4.58912 21.9614 5.2684 21.7264 5.94186 21.7217C6.61648 21.7217 7.25272 21.9776 7.92618 22.2487C12.0519 24.1562 16.9313 23.2885 20.1101 20.1108C24.3044 15.9142 24.3044 9.08766 20.1101 4.89335C18.0793 2.8625 15.3785 1.74472 12.5032 1.74472ZM17.094 11.8207C17.736 11.8207 18.2571 12.3406 18.2571 12.9838C18.2571 13.6271 17.736 14.147 17.094 14.147C16.4519 14.147 15.9262 13.6271 15.9262 12.9838C15.9262 12.3406 16.4415 11.8207 17.0835 11.8207H17.094ZM12.4312 11.8207C13.0732 11.8207 13.5943 12.3406 13.5943 12.9838C13.5943 13.6271 13.0732 14.147 12.4312 14.147C11.7891 14.147 11.2634 13.6271 11.2634 12.9838C11.2634 12.3406 11.7775 11.8207 12.4207 11.8207H12.4312ZM7.76788 11.8207C8.40994 11.8207 8.93103 12.3406 8.93103 12.9838C8.93103 13.6271 8.40994 14.147 7.76788 14.147C7.12582 14.147 6.60008 13.6271 6.60008 12.9838C6.60008 12.3406 7.11536 11.8207 7.75741 11.8207H7.76788Z" fill="white"/>
</svg>
