<svg width="25" height="21" viewBox="0 0 25 21" fill="none" xmlns="http://www.w3.org/2000/svg">
<path fill-rule="evenodd" clip-rule="evenodd" d="M0 1.75C0 1.28587 0.184374 0.840752 0.512563 0.512563C0.840752 0.184375 1.28587 0 1.75 0H22.75C23.2141 0 23.6593 0.184375 23.9874 0.512563C24.3156 0.840752 24.5 1.28587 24.5 1.75C24.5 2.21413 24.3156 2.65925 23.9874 2.98744C23.6593 3.31563 23.2141 3.5 22.75 3.5H1.75C1.28587 3.5 0.840752 3.31563 0.512563 2.98744C0.184374 2.65925 0 2.21413 0 1.75ZM0 10.5C0 10.0359 0.184374 9.59075 0.512563 9.26256C0.840752 8.93437 1.28587 8.75 1.75 8.75H22.75C23.2141 8.75 23.6593 8.93437 23.9874 9.26256C24.3156 9.59075 24.5 10.0359 24.5 10.5C24.5 10.9641 24.3156 11.4092 23.9874 11.7374C23.6593 12.0656 23.2141 12.25 22.75 12.25H1.75C1.28587 12.25 0.840752 12.0656 0.512563 11.7374C0.184374 11.4092 0 10.9641 0 10.5ZM0 19.25C0 18.7859 0.184374 18.3408 0.512563 18.0126C0.840752 17.6844 1.28587 17.5 1.75 17.5H12.25C12.7141 17.5 13.1592 17.6844 13.4874 18.0126C13.8156 18.3408 14 18.7859 14 19.25C14 19.7141 13.8156 20.1592 13.4874 20.4874C13.1592 20.8156 12.7141 21 12.25 21H1.75C1.28587 21 0.840752 20.8156 0.512563 20.4874C0.184374 20.1592 0 19.7141 0 19.25Z" fill="white"/>
</svg>
