<svg width="22" height="22" viewBox="0 0 22 22" fill="none" xmlns="http://www.w3.org/2000/svg">
<path d="M19.6614 4.43683L19.6606 4.43588C17.6322 1.96798 14.5716 0.5 11.2618 0.5C5.30642 0.5 0.5 5.21185 0.5 11C0.5 16.7882 5.30535 21.5 11.2618 21.5C14.6201 21.5 17.7216 19.9888 19.7466 17.4571L19.7472 17.4563C19.7647 17.4345 19.7776 17.4095 19.7852 17.3826L20.2663 17.5188L19.7852 17.3826C19.7929 17.3557 19.795 17.3276 19.7915 17.2999C19.788 17.2721 19.779 17.2454 19.765 17.2212L20.1976 16.9705L19.765 17.2212C19.751 17.1971 19.7323 17.176 19.71 17.1592L19.7078 17.1575C19.6565 17.1185 19.5921 17.101 19.5282 17.1087C19.4645 17.1163 19.4063 17.1483 19.3658 17.198C18.3911 18.4091 17.1564 19.3852 15.7531 20.054C14.3499 20.7227 12.8141 21.067 11.2598 21.0612C11.2594 21.0612 11.2591 21.0612 11.2588 21.0612L11.2607 20.5612L19.6614 4.43683ZM19.6614 4.43683C19.6792 4.45837 19.6925 4.48328 19.7004 4.51009C19.7084 4.53687 19.7109 4.56501 19.7078 4.5928C19.7047 4.62059 19.696 4.64746 19.6823 4.67182L20.1181 4.91697M19.6614 4.43683L20.1181 4.91697M20.1181 4.91697L19.6823 4.67183C19.6686 4.69619 19.6502 4.71754 19.628 4.7346L19.6251 4.73691M20.1181 4.91697L19.6251 4.73691M19.6251 4.73691C19.5744 4.77668 19.5102 4.79511 19.4461 4.78831M19.6251 4.73691L19.4461 4.78831M19.4461 4.78831C19.3823 4.78153 19.3236 4.75025 19.2823 4.70104M19.4461 4.78831L19.2823 4.70104M19.2823 4.70104C18.3067 3.51941 17.0811 2.56903 15.6939 1.91844C14.3065 1.26778 12.7921 0.933187 11.2598 0.9388L19.2823 4.70104ZM18.4464 8.22539L18.4464 8.22542L18.4505 8.22945L21.4265 11.2072L21.4272 11.2079C21.5268 11.3071 21.5177 11.4512 21.4394 11.5302C21.4392 11.5303 21.4391 11.5304 21.439 11.5305L18.5358 14.4333C18.5353 14.4337 18.5348 14.4342 18.5344 14.4346C18.4913 14.4761 18.4337 14.499 18.3739 14.4983C18.3134 14.4977 18.2557 14.473 18.2134 14.4298L18.2135 14.4297L18.2052 14.4216C18.1837 14.4007 18.1666 14.3757 18.1547 14.3481C18.1429 14.3205 18.1367 14.2909 18.1363 14.2609C18.136 14.2309 18.1415 14.2011 18.1527 14.1732C18.1636 14.146 18.1797 14.1211 18.2 14.1L19.8989 12.4007L20.7523 11.5472H19.5454H8.20659V11.5472L8.20051 11.5472C8.17057 11.5476 8.14085 11.5421 8.11306 11.5309C8.08525 11.5198 8.05991 11.5033 8.03847 11.4824C8.01703 11.4615 7.99992 11.4365 7.98812 11.4089C7.97672 11.3823 7.97049 11.3538 7.96975 11.3249C7.9714 11.2145 8.06627 11.1073 8.20659 11.1073H19.5003H20.7072L19.8539 10.2538L18.1404 8.53998L18.1404 8.53996L18.1363 8.5359C18.093 8.49362 18.0683 8.43587 18.0676 8.37533C18.0669 8.31678 18.0887 8.2603 18.1284 8.21749C18.1712 8.17783 18.2276 8.15604 18.286 8.15672C18.3465 8.15744 18.4042 8.18212 18.4464 8.22539Z" fill="#4A56D2" stroke="#4A56D2"/>
</svg>
