<svg width="209" height="141" viewBox="0 0 209 141" fill="none" xmlns="http://www.w3.org/2000/svg">
<path d="M71.3935 52.8239C72.606 50.5535 73.5522 48.1507 74.2133 45.6632C74.9641 43.0528 75.5286 40.3922 75.9025 37.7018C76.7168 31.9073 73.7355 27.5732 68.8899 27.5732H47.5158C33.5781 27.5732 34.9712 44.3375 46.9437 44.3375H57.7116C56.6611 46.649 55.1734 48.7354 53.3304 50.4819C49.2386 54.439 44.3594 56.3571 38.4102 56.3571H37.6901V72.5088C39.6294 72.5622 41.5698 72.4541 43.4913 72.1858C51.4275 71.2093 58.8115 67.6144 64.4751 61.9698C66.8733 59.6614 68.9491 57.04 70.6465 54.1766C70.8753 53.8132 71.1175 53.3825 71.3733 52.8777L71.3935 52.8239Z" fill="white"/>
<path d="M36.9768 56.3572C31.0208 56.3572 26.1416 54.4391 22.0498 50.482C20.1501 48.6349 18.64 46.4257 17.6089 43.9849C16.5777 41.5441 16.0464 38.9214 16.0464 36.2718C16.0464 33.6221 16.5777 30.9994 17.6089 28.5586C18.64 26.1178 20.1501 23.9086 22.0498 22.0615C25.6682 18.4849 30.4992 16.3997 35.5837 16.22H36.9768C41.7752 16.22 45.7257 17.29 49.0368 19.4907C49.4002 19.733 55.262 23.071 59.7374 18.5956C64.2127 14.1203 61.6217 9.17376 58.7346 6.97981C53.924 3.38256 48.2514 1.1149 42.2867 0.404696H42.2463C38.7468 -0.227916 31.889 0.404696 31.889 0.404696C23.9527 1.38124 16.5687 4.97615 10.9051 10.6207C7.45707 13.951 4.71487 17.9415 2.84199 22.3542C0.969112 26.767 0.00390625 31.5117 0.00390625 36.3054C0.00390625 41.0992 0.969112 45.8438 2.84199 50.2566C4.71487 54.6693 7.45707 58.6598 10.9051 61.9901C16.5754 67.6174 23.9587 71.1954 31.889 72.159C33.8104 72.4273 35.7508 72.5353 37.6902 72.482V56.3302H36.9768V56.3572Z" fill="white"/>
<path opacity="0.2" d="M31.889 72.159C33.8104 72.4273 35.7508 72.5353 37.6901 72.482C39.6295 72.5353 41.5699 72.4273 43.4913 72.159C51.4275 71.1824 58.8116 67.5875 64.4752 61.943C66.8733 59.6345 68.9492 57.0131 70.6465 54.1497C70.8753 53.7863 71.1176 53.3556 71.3733 52.8509V52.8105C72.5918 50.5453 73.5448 48.147 74.2134 45.6633C74.9642 43.0528 75.5287 40.3923 75.9026 37.7018C75.9666 37.2377 76.0048 36.7704 76.017 36.302H37.5421C37.818 40.3736 41.1291 44.3375 46.9639 44.3375H57.7318C56.6813 46.649 55.1936 48.7355 53.3506 50.4819C49.2588 54.4391 44.3797 56.3571 38.4304 56.3571H36.9969C31.041 56.3571 26.1618 54.4391 22.07 50.4819C20.1274 48.6743 18.5885 46.4767 17.554 44.0331C16.5195 41.5895 16.0127 38.955 16.0669 36.302H0.00263538C-0.0565584 41.1002 0.882007 45.8583 2.75881 50.2745C4.63561 54.6908 7.40968 58.6689 10.9051 61.9564C16.5706 67.596 23.9544 71.1861 31.889 72.159Z" fill="white"/>
<path d="M188.467 31.5977H170.027C168.778 31.5977 167.579 31.1013 166.696 30.2179C165.813 29.3344 165.316 28.1361 165.316 26.8867C165.316 25.6373 165.813 24.4391 166.696 23.5556C167.579 22.6721 168.778 22.1758 170.027 22.1758H169.307C170.556 22.1758 171.755 21.6795 172.638 20.796C173.522 19.9125 174.018 18.7143 174.018 17.4648C174.018 16.2154 173.522 15.0172 172.638 14.1337C171.755 13.2502 170.556 12.7539 169.307 12.7539H145.88C144.631 12.7539 143.433 13.2502 142.549 14.1337C141.666 15.0172 141.169 16.2154 141.169 17.4648C141.169 18.7143 141.666 19.9125 142.549 20.796C143.433 21.6795 144.631 22.1758 145.88 22.1758H145.1C143.85 22.1758 142.652 22.6721 141.768 23.5556C140.885 24.4391 140.389 25.6373 140.389 26.8867C140.389 28.1361 140.885 29.3344 141.768 30.2179C142.652 31.1013 143.85 31.5977 145.1 31.5977H145.88C144.631 31.5977 143.433 32.094 142.549 32.9775C141.666 33.8609 141.169 35.0592 141.169 36.3086C141.169 37.558 141.666 38.7563 142.549 39.6397C143.433 40.5232 144.631 41.0195 145.88 41.0195C144.631 41.0195 143.433 41.5159 142.549 42.3993C141.666 43.2828 141.169 44.4811 141.169 45.7305C141.169 46.9799 141.666 48.1781 142.549 49.0616C143.433 49.9451 144.631 50.4414 145.88 50.4414H141.795C140.546 50.4414 139.347 50.9377 138.464 51.8212C137.581 52.7047 137.084 53.9029 137.084 55.1523C137.084 56.4018 137.581 57.6 138.464 58.4835C139.347 59.367 140.546 59.8633 141.795 59.8633H166.79C168.039 59.8633 169.238 59.367 170.121 58.4835C171.005 57.6 171.501 56.4018 171.501 55.1523C171.501 53.9029 171.005 52.7047 170.121 51.8212C169.238 50.9377 168.039 50.4414 166.79 50.4414H157.563C156.314 50.4414 155.116 49.9451 154.232 49.0616C153.349 48.1781 152.852 46.9799 152.852 45.7305C152.852 44.4811 153.349 43.2828 154.232 42.3993C155.116 41.5159 156.314 41.0195 157.563 41.0195H188.467C189.716 41.0195 190.915 40.5232 191.798 39.6397C192.682 38.7563 193.178 37.558 193.178 36.3086C193.178 35.0592 192.682 33.8609 191.798 32.9775C190.915 32.094 189.716 31.5977 188.467 31.5977Z" fill="white"/>
<path d="M183.009 50.4214H180.317C179.068 50.4214 177.869 50.9177 176.986 51.8012C176.103 52.6847 175.606 53.8829 175.606 55.1323C175.606 56.3817 176.103 57.58 176.986 58.4635C177.869 59.3469 179.068 59.8433 180.317 59.8433H183.009C184.259 59.8433 185.457 59.3469 186.34 58.4635C187.224 57.58 187.72 56.3817 187.72 55.1323C187.72 53.8829 187.224 52.6847 186.34 51.8012C185.457 50.9177 184.259 50.4214 183.009 50.4214Z" fill="#5649CD"/>
<path opacity="0.2" d="M183.009 50.4214H180.317C179.068 50.4214 177.869 50.9177 176.986 51.8012C176.103 52.6847 175.606 53.8829 175.606 55.1323C175.606 56.3817 176.103 57.58 176.986 58.4635C177.869 59.3469 179.068 59.8433 180.317 59.8433H183.009C184.259 59.8433 185.457 59.3469 186.34 58.4635C187.224 57.58 187.72 56.3817 187.72 55.1323C187.72 53.8829 187.224 52.6847 186.34 51.8012C185.457 50.9177 184.259 50.4214 183.009 50.4214Z" fill="white"/>
<path d="M204.289 31.5977H201.597C200.348 31.5977 199.15 32.094 198.266 32.9775C197.383 33.8609 196.886 35.0592 196.886 36.3086C196.886 37.558 197.383 38.7563 198.266 39.6397C199.15 40.5232 200.348 41.0195 201.597 41.0195H204.289C205.539 41.0195 206.737 40.5232 207.62 39.6397C208.504 38.7563 209 37.558 209 36.3086C209 35.0592 208.504 33.8609 207.62 32.9775C206.737 32.094 205.539 31.5977 204.289 31.5977Z" fill="white"/>
<path d="M142.313 10.6139C135.391 3.81159 126.074 0 116.369 0C106.664 0 97.3476 3.81159 90.4255 10.6139C87.008 13.963 84.293 17.9604 82.4395 22.3719C80.586 26.7834 79.6313 31.5203 79.6313 36.3053C79.6313 41.0904 80.586 45.8273 82.4395 50.2388C84.293 54.6503 87.008 58.6476 90.4255 61.9968C97.3476 68.7991 106.664 72.6106 116.369 72.6106C126.074 72.6106 135.391 68.7991 142.313 61.9968C145.733 58.649 148.45 54.6521 150.305 50.2405C152.16 45.8288 153.116 41.0911 153.116 36.3053C153.116 31.5195 152.16 26.7819 150.305 22.3702C148.45 17.9585 145.733 13.9616 142.313 10.6139ZM130.744 37.5335L116.8 61.8554L102.93 37.5335C101.827 35.1908 101.334 32.6075 101.496 30.0234C101.659 27.4392 102.471 24.9379 103.858 22.7516C105.246 20.5653 107.163 18.7649 109.432 17.5175C111.701 16.27 114.248 15.6159 116.837 15.6159C119.426 15.6159 121.974 16.27 124.243 17.5175C126.512 18.7649 128.429 20.5653 129.816 22.7516C131.203 24.9379 132.016 27.4392 132.178 30.0234C132.34 32.6075 131.847 35.1908 130.744 37.5335Z" fill="white"/>
<path d="M116.84 23.791C115.562 23.7897 114.312 24.1676 113.249 24.877C112.185 25.5864 111.356 26.5954 110.866 27.7762C110.376 28.957 110.248 30.2566 110.497 31.5105C110.746 32.7644 111.361 33.9162 112.265 34.8201C113.169 35.7241 114.321 36.3396 115.575 36.5886C116.829 36.8377 118.128 36.7092 119.309 36.2194C120.49 35.7295 121.499 34.9004 122.208 33.8369C122.918 32.7734 123.296 31.5234 123.294 30.245C123.294 28.5333 122.615 26.8917 121.404 25.6813C120.194 24.471 118.552 23.791 116.84 23.791Z" fill="white"/>
<path opacity="0.2" d="M131.263 36.3021C131.108 36.7261 130.94 37.1433 130.745 37.5538L116.8 61.8757L102.93 37.5538C102.741 37.1433 102.566 36.7261 102.412 36.3021H79.6309C79.5708 41.094 80.4955 45.8473 82.3477 50.2672C84.2 54.6871 86.9403 58.6795 90.3988 61.9969C97.3209 68.7992 106.638 72.6107 116.343 72.6107C126.048 72.6107 135.364 68.7992 142.286 61.9969C143.006 61.2902 143.673 60.5634 144.305 59.8298H166.75C167.999 59.8298 169.197 59.3335 170.081 58.45C170.964 57.5666 171.461 56.3683 171.461 55.1189C171.461 53.8695 170.964 52.6712 170.081 51.7878C169.197 50.9043 167.999 50.408 166.75 50.408H157.563C156.314 50.408 155.116 49.9116 154.232 49.0282C153.349 48.1447 152.852 46.9464 152.852 45.697C152.852 44.4476 153.349 43.2494 154.232 42.3659C155.116 41.4824 156.314 40.9861 157.563 40.9861H188.467C189.716 40.9861 190.915 40.4898 191.798 39.6063C192.682 38.7228 193.178 37.5246 193.178 36.2751L131.263 36.3021Z" fill="white"/>
<path opacity="0.2" d="M196.873 36.302C196.873 37.5514 197.369 38.7497 198.253 39.6331C199.136 40.5166 200.334 41.0129 201.584 41.0129H204.276C205.525 41.0129 206.723 40.5166 207.607 39.6331C208.49 38.7497 208.987 37.5514 208.987 36.302H196.873Z" fill="white"/>
<path d="M39.9704 95.9535H41.9233C44.3496 96.1902 46.2581 97.2407 47.6488 99.1048C47.7968 99.2823 47.8855 99.3859 47.9151 99.4155C47.8855 99.4155 48.3737 98.942 49.3798 97.9952C50.6521 96.782 51.2587 96.205 51.1995 96.2642L51.5546 95.9092H51.9097C52.2943 95.9092 52.5162 95.9979 52.5754 96.1755C52.605 96.2346 52.1168 98.3355 51.1107 102.478C50.0455 106.739 49.5129 108.825 49.5129 108.736C49.4538 108.914 49.0395 109.002 48.2702 109.002H47.3381L47.205 108.869C47.0866 108.751 47.057 108.485 47.1162 108.07C47.1162 108.041 47.131 107.893 47.1606 107.626C47.4565 105.496 47.2789 103.602 46.628 101.945C45.9178 99.9925 44.6455 98.8385 42.811 98.4834C42.2784 98.3651 41.4647 98.3503 40.3699 98.439C40.2811 98.4686 40.2071 98.4834 40.148 98.4834C37.5145 98.8681 35.103 99.9037 32.9134 101.59C30.4871 103.543 28.6969 106.399 27.543 110.156C27.04 111.695 26.6849 113.174 26.4778 114.595C25.9747 117.583 26.1523 119.921 27.0104 121.607C27.5134 122.613 28.2383 123.442 29.1852 124.093C30.0137 124.714 31.0789 125.173 32.3808 125.469C35.2509 126.031 37.6625 125.617 39.6154 124.226C39.7337 124.137 39.8521 124.048 39.9704 123.96C40.6214 123.397 41.0652 122.821 41.3019 122.229C42.0417 119.27 42.4115 117.82 42.4115 117.879C42.4115 117.82 42.3524 117.79 42.234 117.79C41.9973 117.672 41.006 117.598 39.2603 117.568C37.9584 117.568 37.2482 117.465 37.1299 117.258C37.1003 117.169 37.1447 116.829 37.263 116.237C37.411 115.675 37.5441 115.334 37.6625 115.216L37.7956 115.083H38.5501C42.3376 115.231 45.9918 115.246 49.5129 115.127C50.2822 115.098 50.7261 115.187 50.8444 115.394C50.874 115.482 50.8297 115.823 50.7113 116.414C50.5633 116.977 50.4302 117.317 50.3118 117.435L50.1787 117.568H49.5129C48.4181 117.568 47.7524 117.628 47.5157 117.746C47.4565 117.776 47.3825 117.835 47.2937 117.924C47.205 118.012 46.8055 119.536 46.0954 122.495C45.3557 125.454 44.9414 126.978 44.8526 127.067C44.6751 127.244 44.3052 127.111 43.743 126.667C43.1217 126.164 42.663 125.735 42.3671 125.38L42.1008 125.025L41.7458 125.336C40.8581 126.134 39.7337 126.771 38.3726 127.244C37.3962 127.629 36.1978 127.91 34.7775 128.087C33.8011 128.206 32.7211 128.206 31.5375 128.087C31.4487 128.087 31.3748 128.087 31.3156 128.087C28.4454 127.673 26.1079 126.519 24.303 124.625C22.5868 122.821 21.5512 120.572 21.1961 117.879C21.0186 116.666 21.0333 115.29 21.2405 113.751C21.7731 109.934 23.4301 106.413 26.2115 103.188C27.2471 102.064 28.1052 101.235 28.7857 100.703C31.7446 98.2467 34.9255 96.7229 38.3282 96.1311C38.4762 96.1015 39.0236 96.0423 39.9704 95.9535ZM66.2959 107.671C67.3315 107.523 68.3523 107.567 69.3584 107.804C71.6663 108.307 73.3233 109.594 74.3293 111.665C75.5129 114.033 75.4537 116.681 74.1518 119.61C73.9151 120.143 73.6488 120.66 73.3529 121.164C71.6663 123.974 69.3288 125.927 66.3403 127.022C65.571 127.288 64.7868 127.481 63.9879 127.599C63.3666 127.718 62.5824 127.732 61.6356 127.644C61.5468 127.614 61.4729 127.599 61.4137 127.599C59.7271 127.333 58.3068 126.652 57.1528 125.558C56.1764 124.551 55.5402 123.368 55.2443 122.007C54.623 119.344 55.2147 116.607 57.0197 113.796C58.0849 112.139 59.4164 110.778 61.0142 109.713C62.76 108.529 64.5205 107.848 66.2959 107.671ZM67.8049 109.713C66.651 109.565 65.5414 109.786 64.4762 110.378C62.7896 111.296 61.5616 112.864 60.7923 115.083C60.2893 116.444 59.8898 117.938 59.5939 119.566C59.0613 122.199 59.4312 123.989 60.7035 124.936C60.7923 124.995 60.8811 125.054 60.9698 125.114C61.3545 125.35 61.7687 125.484 62.2126 125.513C63.84 125.809 65.3934 125.321 66.8729 124.048C67.1984 123.782 67.4942 123.486 67.7606 123.161C68.6482 122.096 69.3732 120.424 69.9354 118.145C69.9945 117.997 70.0389 117.835 70.0685 117.657C70.5419 115.793 70.7786 114.402 70.7786 113.485C70.7786 112.745 70.6899 112.168 70.5123 111.754C70.2756 111.103 69.8318 110.585 69.1808 110.201C68.7962 109.934 68.3375 109.772 67.8049 109.713ZM84.1094 96.93C84.1686 96.9004 86.7724 96.8856 91.9209 96.8856C97.3062 96.9152 100.25 96.9744 100.753 97.0631C100.812 97.0927 100.946 97.1223 101.153 97.1519C103.875 97.6549 105.843 98.8237 107.056 100.658C107.736 101.664 108.062 102.759 108.032 103.943C108.003 104.771 107.781 105.614 107.366 106.472C106.952 107.301 106.375 108.07 105.636 108.78C104.186 110.23 102.188 111.399 99.6437 112.287C99.6141 112.287 99.6585 112.331 99.7769 112.42C99.836 112.479 99.8952 112.523 99.9544 112.553C100.99 113.263 101.715 114.21 102.129 115.394C102.395 116.222 102.469 117.376 102.351 118.856C102.322 119.181 102.277 119.595 102.218 120.098C102.07 121.637 101.996 122.761 101.996 123.471C102.026 124.566 102.233 125.306 102.617 125.691C102.884 125.927 103.283 126.046 103.816 126.046C104.141 126.046 104.378 126.016 104.526 125.957C104.881 125.809 105.236 125.528 105.591 125.114C105.976 124.551 106.272 123.974 106.479 123.383C106.627 122.909 106.804 122.643 107.011 122.584C107.13 122.554 107.352 122.539 107.677 122.539C108.239 122.539 108.58 122.613 108.698 122.761C108.905 122.998 108.757 123.619 108.254 124.625C107.366 126.49 106.153 127.629 104.615 128.043C104.378 128.102 103.934 128.132 103.283 128.132C102.514 128.132 102.011 128.117 101.774 128.087C98.904 127.703 97.173 126.519 96.5812 124.537C96.4037 123.945 96.3741 123.279 96.4925 122.539C96.6404 121.8 96.8475 120.897 97.1138 119.832C97.4097 118.648 97.6168 117.761 97.7352 117.169C97.8831 116.37 97.7648 115.586 97.3801 114.817C97.2322 114.55 97.0399 114.299 96.8031 114.062C96.3001 113.589 95.6787 113.278 94.939 113.13C94.8207 113.1 93.8146 113.086 91.9209 113.086H89.1691L89.1247 113.263C89.1247 113.234 88.6513 115.113 87.7045 118.9C86.7872 122.599 86.3434 124.463 86.373 124.492C86.4321 124.551 86.5357 124.581 86.6836 124.581C87.0387 124.67 87.9264 124.714 89.3467 124.714C90.0864 124.714 90.5154 124.818 90.6338 125.025C90.6634 125.143 90.619 125.484 90.5006 126.046C90.3527 126.608 90.2195 126.948 90.1012 127.067L89.968 127.2H89.3023C86.0771 127.052 82.3784 127.037 78.2063 127.155C77.2299 127.185 76.6825 127.096 76.5641 126.889C76.5346 126.8 76.5789 126.46 76.6973 125.868C76.8748 125.276 76.9932 124.936 77.0524 124.847L77.2299 124.714H78.7389C80.3959 124.685 81.328 124.566 81.5351 124.359C81.6239 124.3 82.6891 120.187 84.7308 112.02C86.7724 103.854 87.7932 99.741 87.7932 99.6818C87.7932 99.6522 87.7636 99.6078 87.7045 99.5486C87.5861 99.4894 86.7872 99.4303 85.3077 99.3711H83.7987L83.6212 99.1936C83.5324 99.1048 83.488 99.016 83.488 98.9272L83.9762 97.1075C83.9762 97.0779 84.0206 97.0187 84.1094 96.93ZM99.1555 99.4599C98.9779 99.4303 97.9423 99.4007 96.0486 99.3711L93.1193 99.4155C92.8234 99.4451 92.6311 99.5338 92.5423 99.6818L89.7017 111H92.6754C94.8355 110.97 96.019 110.94 96.2261 110.911C98.9188 110.526 100.709 109.431 101.597 107.626C102.07 106.65 102.455 105.378 102.751 103.809C102.869 103.04 102.869 102.389 102.751 101.857C102.395 100.555 101.197 99.7557 99.1555 99.4599ZM119.252 97.9508C119.844 97.8029 120.406 97.8472 120.939 98.084C121.737 98.4686 122.093 99.1492 122.004 100.126C121.974 100.274 121.945 100.407 121.915 100.525C121.59 101.649 120.85 102.404 119.696 102.789C119.637 102.789 119.577 102.803 119.518 102.833C118.66 103.07 117.935 102.892 117.343 102.3C116.663 101.59 116.589 100.732 117.122 99.7262C117.536 98.7793 118.246 98.1875 119.252 97.9508ZM115.302 107.671C115.716 107.582 116.249 107.567 116.9 107.626C118.616 107.952 119.696 108.884 120.14 110.423C120.288 111.044 120.288 111.695 120.14 112.376L118.142 117.79C116.811 121.282 116.13 123.102 116.101 123.25C115.746 124.404 115.731 125.143 116.056 125.469C116.145 125.528 116.308 125.558 116.545 125.558C116.87 125.558 117.077 125.543 117.166 125.513C118.438 125.069 119.415 123.753 120.095 121.563C120.154 121.445 120.199 121.311 120.228 121.164C120.376 120.72 120.524 120.483 120.672 120.453C120.761 120.424 121.027 120.409 121.471 120.409C122.033 120.409 122.344 120.439 122.403 120.498C122.551 120.616 122.581 120.868 122.492 121.252C121.93 123.205 121.042 124.788 119.829 126.001C119 126.771 118.157 127.288 117.299 127.555C117.003 127.614 116.604 127.644 116.101 127.644C115.568 127.644 115.183 127.614 114.947 127.555C114 127.318 113.29 126.889 112.816 126.268C112.461 125.853 112.225 125.38 112.106 124.847C111.958 124.196 111.958 123.531 112.106 122.85L114.148 117.391C115.509 113.751 116.234 111.754 116.323 111.399C116.441 110.896 116.441 110.452 116.323 110.068C116.175 109.713 115.849 109.594 115.346 109.713C114.459 109.89 113.66 110.571 112.949 111.754C112.506 112.494 112.151 113.396 111.884 114.462C111.795 114.639 111.736 114.743 111.707 114.772C111.648 114.831 111.337 114.861 110.775 114.861H109.931L109.798 114.728C109.65 114.61 109.665 114.299 109.843 113.796C110.582 111.31 111.781 109.52 113.438 108.425C113.586 108.337 113.748 108.248 113.926 108.159C114.459 107.863 114.917 107.7 115.302 107.671ZM143.651 96.6637C146.018 96.4861 147.187 96.3974 147.157 96.3974C147.424 96.3974 147.601 96.5009 147.69 96.7081C147.719 96.8264 146.654 101.235 144.494 109.934C142.275 118.752 141.165 123.25 141.165 123.427C141.047 124.048 141.062 124.566 141.21 124.981C141.387 125.454 141.728 125.661 142.231 125.602C142.586 125.572 142.956 125.291 143.34 124.759C143.754 124.137 144.183 122.983 144.627 121.297C144.746 120.794 144.879 120.513 145.027 120.453C145.116 120.424 145.397 120.409 145.87 120.409C146.432 120.409 146.743 120.439 146.802 120.498C146.98 120.616 146.98 120.956 146.802 121.519C146.033 124.27 145.042 126.09 143.828 126.978C143.355 127.333 142.882 127.555 142.408 127.644C141.787 127.732 141.121 127.688 140.411 127.51C139.079 127.215 138.133 126.519 137.57 125.424L137.437 125.114L137.171 125.336C134.833 127.348 132.525 128.058 130.247 127.466C129.596 127.288 128.989 127.022 128.427 126.667C126.741 125.484 125.779 123.723 125.542 121.385C125.454 120.32 125.528 119.166 125.764 117.924C126.208 116 126.992 114.269 128.117 112.731C129.922 110.186 132.17 108.559 134.863 107.848C135.366 107.7 135.987 107.626 136.727 107.626C137.289 107.626 137.703 107.656 137.97 107.715C138.769 107.922 139.494 108.351 140.145 109.002L140.5 109.357L140.544 109.18C140.544 109.239 140.914 107.789 141.654 104.83C142.453 101.635 142.793 99.9481 142.674 99.7705C142.497 99.5042 141.742 99.3711 140.411 99.3711C139.878 99.3711 139.568 99.2675 139.479 99.0604C139.449 98.9125 139.508 98.5722 139.656 98.0396C139.775 97.4774 139.893 97.1371 140.011 97.0187C140.1 96.93 140.189 96.8856 140.278 96.8856C140.544 96.8856 141.668 96.8116 143.651 96.6637ZM137.348 109.801C136.757 109.653 136.268 109.624 135.884 109.713C134.966 109.89 134.079 110.408 133.221 111.266C132.363 112.183 131.608 113.811 130.957 116.148C130.809 116.681 130.646 117.302 130.469 118.012C129.966 120.024 129.714 121.519 129.714 122.495C129.714 123.412 129.907 124.137 130.291 124.67C131.002 125.617 132.067 125.853 133.487 125.38C134.7 124.966 135.869 124.034 136.993 122.584L137.304 122.184L138.458 117.524L139.612 112.864L139.523 112.509C139.109 111.059 138.384 110.156 137.348 109.801ZM160.23 107.626H162.005C164.135 107.952 165.496 108.928 166.088 110.556C166.266 111.148 166.295 111.754 166.177 112.376C165.674 114.654 164.032 116.148 161.25 116.858C160.008 117.213 157.951 117.435 155.081 117.524H153.661L153.572 117.79C153.454 118.293 153.306 119.063 153.128 120.098C153.01 121.045 153.01 121.888 153.128 122.628C153.306 123.486 153.676 124.182 154.238 124.714C154.918 125.336 155.836 125.631 156.99 125.602C159.357 125.454 161.354 124.773 162.981 123.56C163.544 123.205 164.017 122.776 164.402 122.273C164.727 121.888 164.993 121.77 165.201 121.918C165.289 121.977 165.452 122.125 165.689 122.362C166.103 122.806 166.295 123.087 166.266 123.205C166.236 123.353 165.911 123.738 165.289 124.359C163.425 126.134 161.029 127.2 158.099 127.555C157.093 127.732 156.205 127.762 155.436 127.644C152.655 127.348 150.717 125.942 149.622 123.427C149.415 122.983 149.252 122.51 149.134 122.007C148.927 121.267 148.823 120.335 148.823 119.211C148.853 117.465 149.237 115.867 149.977 114.417C150.51 113.322 151.235 112.316 152.152 111.399C152.596 110.985 153.143 110.526 153.794 110.023C155.599 108.692 157.552 107.908 159.653 107.671C159.801 107.641 159.993 107.626 160.23 107.626ZM161.428 109.713C160.333 109.505 159.179 109.713 157.966 110.334C156.22 111.133 155.007 112.671 154.327 114.95C154.267 115.187 154.223 115.32 154.193 115.349C154.193 115.408 154.682 115.438 155.658 115.438C157.581 115.408 159.031 115.275 160.008 115.039C162.02 114.624 163.203 113.766 163.558 112.464C163.677 111.991 163.662 111.577 163.514 111.222C163.248 110.452 162.552 109.949 161.428 109.713ZM173.226 107.626C173.759 107.567 174.365 107.582 175.046 107.671C176.437 107.996 177.428 108.677 178.02 109.713L178.153 109.934L178.419 109.624C179.04 109.002 179.691 108.529 180.372 108.203C181.141 107.819 181.999 107.626 182.946 107.626C183.479 107.626 183.849 107.656 184.056 107.715C184.588 107.863 185.106 108.115 185.609 108.47C186.615 109.298 187.059 110.423 186.941 111.843C186.941 111.932 186.941 112.006 186.941 112.065C186.763 113.515 186.142 114.491 185.077 114.994C184.248 115.379 183.464 115.408 182.724 115.083C181.866 114.669 181.541 113.914 181.748 112.819C181.866 112.228 182.147 111.68 182.591 111.177C182.976 110.822 183.405 110.571 183.878 110.423L184.189 110.289L184.056 110.156C183.375 109.594 182.517 109.505 181.481 109.89C180.446 110.304 179.499 111.266 178.641 112.775L178.286 113.308L176.732 119.654C175.638 123.915 175.046 126.134 174.957 126.312C174.543 127.2 173.847 127.658 172.871 127.688C172.398 127.688 171.983 127.555 171.628 127.288C171.48 127.229 171.347 127.067 171.229 126.8C171.081 126.504 171.066 126.061 171.184 125.469C171.332 124.788 171.85 122.658 172.738 119.077C173.892 114.491 174.484 112.109 174.513 111.932C174.72 110.482 174.439 109.727 173.67 109.668C173.581 109.668 173.492 109.668 173.404 109.668C172.516 109.846 171.732 111.296 171.051 114.018C170.933 114.373 170.874 114.565 170.874 114.595C170.548 114.772 170.193 114.861 169.809 114.861H168.965L168.832 114.728C168.714 114.61 168.714 114.299 168.832 113.796C169.394 111.725 170.09 110.171 170.918 109.136C171.569 108.337 172.338 107.834 173.226 107.626Z" fill="white"/>
</svg>
