<svg width="24" height="27" viewBox="0 0 24 27" fill="none" xmlns="http://www.w3.org/2000/svg">
<path fill-rule="evenodd" clip-rule="evenodd" d="M9.19787 23.9936C9.84838 24.7182 10.6835 25.1163 11.55 25.1163H11.5513C12.4215 25.1163 13.2604 24.7182 13.9122 23.9923C14.2613 23.6068 14.8566 23.5754 15.2421 23.9233C15.6289 24.2711 15.6603 24.8676 15.3124 25.2532C14.2977 26.3796 12.9628 27 11.5513 27H11.5487C10.141 26.9987 8.80856 26.3784 7.79763 25.2519C7.44977 24.8664 7.48117 24.2699 7.86796 23.9233C8.25475 23.5741 8.85001 23.6055 9.19787 23.9936ZM11.6125 0C17.1946 0 20.9445 4.34763 20.9445 8.40767C20.9445 10.4961 21.4757 11.3814 22.0396 12.3208C22.5972 13.2476 23.2288 14.3 23.2288 16.2892C22.7905 21.3714 17.4847 21.7859 11.6125 21.7859C5.74036 21.7859 0.433289 21.3714 1.66224e-05 16.3695C-0.00373405 14.3 0.62794 13.2476 1.18552 12.3208L1.38236 11.9895C1.86702 11.1565 2.28059 10.2504 2.28059 8.40767C2.28059 4.34763 6.03045 0 11.6125 0ZM11.6125 1.88372C7.22348 1.88372 4.16431 5.32214 4.16431 8.40767C4.16431 11.0185 3.43971 12.2253 2.79924 13.2903C2.28561 14.1455 1.87999 14.8211 1.87999 16.2892C2.08971 18.6576 3.6532 19.9021 11.6125 19.9021C19.5279 19.9021 21.1404 18.6024 21.3489 16.2075C21.3451 14.8211 20.9395 14.1455 20.4258 13.2903C19.7854 12.2253 19.0608 11.0185 19.0608 8.40767C19.0608 5.32214 16.0016 1.88372 11.6125 1.88372Z" fill="white"/>
</svg>
