<svg width="12" height="16" viewBox="0 0 12 16" fill="none" xmlns="http://www.w3.org/2000/svg">
<path d="M5.6 0C2.504 0 0 2.504 0 5.6C0 9.8 5.6 16 5.6 16C5.6 16 11.2 9.8 11.2 5.6C11.2 2.504 8.696 0 5.6 0ZM5.6 7.6C5.06957 7.6 4.56086 7.38929 4.18579 7.01421C3.81071 6.63914 3.6 6.13043 3.6 5.6C3.6 5.06957 3.81071 4.56086 4.18579 4.18579C4.56086 3.81071 5.06957 3.6 5.6 3.6C6.13043 3.6 6.63914 3.81071 7.01421 4.18579C7.38929 4.56086 7.6 5.06957 7.6 5.6C7.6 6.13043 7.38929 6.63914 7.01421 7.01421C6.63914 7.38929 6.13043 7.6 5.6 7.6Z" fill="#6D72DF"/>
</svg>
